<svg width="120" height="120" viewBox="0 0 120 120" fill="none" xmlns="http://www.w3.org/2000/svg">
<path fill-rule="evenodd" clip-rule="evenodd" d="M86.4641 51.4515C87.6583 43.4668 81.5793 39.1747 73.2668 36.3115L75.9634 25.4955L69.3794 23.8549L66.7543 34.3861C65.0234 33.9544 63.2459 33.5477 61.4792 33.1444L64.1233 22.5437L57.5434 20.9031L54.8453 31.7156C53.413 31.3895 52.0061 31.0672 50.6412 30.7275L50.6488 30.6935L41.5694 28.4262L39.8179 35.4584C39.8179 35.4584 44.7027 36.5781 44.5998 36.647C47.2659 37.3124 47.7481 39.0774 47.668 40.4763L44.5962 52.7982C44.7798 52.8448 45.018 52.9123 45.2807 53.0179L45.0897 52.9702L45.0896 52.9701C44.9271 52.9295 44.7582 52.8872 44.5848 52.8457L40.2792 70.107C39.9534 70.917 39.1264 72.1326 37.2623 71.671C37.3283 71.7666 32.477 70.4768 32.477 70.4768L29.2081 78.0134L37.7761 80.1493C38.7144 80.3846 39.6415 80.6263 40.5592 80.8655L40.5611 80.866C41.2019 81.033 41.8381 81.1989 42.4703 81.3605L39.7458 92.3005L46.3222 93.9411L49.0203 83.1172C50.8169 83.6049 52.5604 84.0548 54.2673 84.4789L51.5782 95.2517L58.1625 96.8923L60.8868 85.9728C72.1139 88.0976 80.5558 87.241 84.1091 77.086C86.9724 68.9101 83.9666 64.1943 78.06 61.119C82.3621 60.1268 85.6025 57.2973 86.4665 51.4524L86.4644 51.4509L86.4641 51.4515ZM71.4212 72.5456C69.5544 80.0467 57.813 76.9455 52.441 75.5267C51.9577 75.399 51.526 75.285 51.1577 75.1935L54.7732 60.6999C55.2221 60.812 55.7706 60.9351 56.392 61.0745L56.3921 61.0746C61.9489 62.3216 73.3338 64.8766 71.4215 72.5456H71.4212ZM57.5067 54.3478C61.9855 55.5431 71.7558 58.1506 73.4574 51.333H73.458C75.1955 44.3603 65.7004 42.2581 61.0629 41.2314C60.5412 41.1159 60.081 41.014 59.7052 40.9203L56.4272 54.0652C56.7367 54.1423 57.0999 54.2392 57.5067 54.3478Z" fill="black"/>
</svg>
